<svg xmlns="http://www.w3.org/2000/svg" xmlns:xlink="http://www.w3.org/1999/xlink" width="800" height="300" viewBox="0 0 800 300">
  <defs>
    <clipPath id="clip-path">
      <rect id="Rectangle_11855" data-name="Rectangle 11855" width="800" height="300" transform="translate(-8404 19065)" fill="#0f3f37"/>
    </clipPath>
  </defs>
  <g id="Mask_Group_346" data-name="Mask Group 346" transform="translate(8404 -19065)" clip-path="url(#clip-path)">
    <g id="LIVE-ADHAN-_-1024x1024-png" transform="translate(-8357.771 20057.049)">
      <path id="Path_61960" data-name="Path 61960" d="M209.138-991.4a18.5,18.5,0,0,0-10.435,9.521,20.156,20.156,0,0,0-2.056,10.156,21.075,21.075,0,0,0,3.181,11.5c1.629,2.578,5.12,5.752,7.254,6.585l1.668.674.039,3.411c.078,6.545-.388,8.291-2.909,11.187-3.957,4.443-3.8,8.727.543,13.607,1.513,1.706,2.328,2.975,2.328,3.61,0,3.293-6.439,17.177-11.754,25.389-4.927,7.577-8.5,11.821-27.232,32.132-17.456,18.962-22.46,24.556-26.068,29.157-20.172,25.587-27.038,54.864-19.706,84.14,2.871,11.386,7.991,22.374,15.749,33.521a36.137,36.137,0,0,1,3.3,5.2c-.116.119-3.22.436-6.9.754-11.56.912-21.413,1.785-22.422,1.944-.543.079-2.172.278-3.685.4-14.9,1.468-38.249,4.522-48.3,6.347-2.871.516-6.013,1.031-6.982,1.19-6.168.952-31.887,6.7-36.27,8.093-.737.238,26.417.4,72.928.4l74.053.039-6.207-6.466c-12.025-12.417-18.5-24.318-21.8-39.908-.931-4.6-1.009-5.713-1.009-14.122,0-9.918.31-12.615,2.521-21.184a81.929,81.929,0,0,1,13.693-28.324c3.375-4.562,7.72-9.561,22.538-25.667,18.116-19.756,20.172-22.176,24.71-29.356,2.948-4.6,5.12-9.164,8.651-18.129,1.629-4.205,3.142-7.577,3.3-7.458a56.493,56.493,0,0,1,2.715,6.228c3.258,8.132,7.254,16.5,9.62,20.192,2.095,3.253,6.439,8.49,16.37,19.8,29.171,33.164,34.137,39.194,38.171,46.255,13.034,22.929,11.4,55.379-3.879,78.9a90.624,90.624,0,0,1-12.064,14.678l-4.849,4.959h74.208c40.809,0,74.092-.08,73.976-.2a2.345,2.345,0,0,0-.931-.4c-.427-.08-4.151-1.071-8.3-2.142-4.189-1.071-10.125-2.539-13.189-3.213-3.1-.674-6.75-1.468-8.146-1.785-4.965-1.111-20.909-3.729-28.706-4.76-4.383-.555-8.573-1.111-9.31-1.19-.737-.119-7.021-.833-13.965-1.587s-13.306-1.468-14.159-1.587c-.853-.079-5.121-.555-9.5-.992-10.125-.991-18.775-2.023-18.969-2.182-.039-.08,1.978-3.372,4.577-7.339,11.831-18.129,16.719-33.957,16.719-54.11,0-16.621-4.189-32.767-11.87-45.977-4.5-7.7-14.392-19.8-29.016-35.584-4.345-4.681-21.762-24.278-26.262-29.554a100.233,100.233,0,0,1-9.659-12.694c-3.957-6.188-10.474-21.025-10.474-23.842,0-.714.582-1.705,1.784-3.015,3.414-3.729,4.5-8.093,2.871-11.7a21.473,21.473,0,0,0-3.22-4.4l-2.521-2.737-.272-3.332a31.937,31.937,0,0,1-.116-4.483c.116-1.111.272-1.23,2.677-1.666,3.491-.674,5.508-1.785,8.34-4.681a19.574,19.574,0,0,0,5.7-13.567c.039-2.143-.039-2.738-.465-2.738-.349,0-.737.833-1.047,2.42A15.755,15.755,0,0,1,220.7-960.1a12.23,12.23,0,0,1-14.12-3.015,18.572,18.572,0,0,1-4.112-14.162,21.066,21.066,0,0,1,4.073-8.926,13.39,13.39,0,0,1,6.944-4.086c1.125-.2,1.707-.516,1.784-.992.116-.6-.194-.674-2.328-.635A15.227,15.227,0,0,0,209.138-991.4Z" transform="translate(-9.691 0)" fill="#fff"/>
      <path id="Path_61961" data-name="Path 61961" d="M515.181-964.249c-.97,2.014-1.241,2.29-2.289,2.329a6.1,6.1,0,0,0-1.862.316c-.66.237-.621.434.62,1.935l1.358,1.619-.5,2.409-.466,2.369,1.823-1.026,1.862-1.027,1.862,1.106,1.823,1.105-.272-2.33-.272-2.329,1.629-1.659,1.629-1.658-1.746-.276c-2.366-.356-2.521-.514-3.375-3l-.7-2.132Z" transform="translate(-310.924 -15.384)" fill="#fff"/>
      <path id="Path_61962" data-name="Path 61962" d="M718.407-678.893c-.7,1.54-.039,2.211,3.413,3.357,10.94,3.632,18.969,10.9,25.021,22.586,4.345,8.411,5.935,15.044,5.935,24.758a52.386,52.386,0,0,1-1.746,15.123c-.892,3.79-.7,4.62,1.047,4.62,1.164,0,1.2-.158,1.9-3.83,2.405-13.07,2.483-14.017,1.9-19.782-.31-2.962-.814-6.752-1.164-8.371-3.918-18.44-16.176-33.286-31.887-38.656C719.688-680.156,718.95-680.156,718.407-678.893Z" transform="translate(-437.964 -188.082)" fill="#fff"/>
      <path id="Path_61963" data-name="Path 61963" d="M712.845-653.117c-.543,1.421.233,2.25,3.065,3.277a32,32,0,0,1,14.392,9.792c8.844,10.819,11.909,22.625,9.387,36.643-.97,5.528-1.008,6.12-.349,6.673.97.829,2.095.158,2.521-1.461a60.835,60.835,0,0,0,1.785-14.886c-.66-15.636-7.021-28.193-18-35.655-3.22-2.172-8.728-4.7-11.172-5.094C713.388-654.026,713.155-653.907,712.845-653.117Z" transform="translate(-434.612 -203.773)" fill="#fff"/>
      <path id="Path_61964" data-name="Path 61964" d="M708.271-627.687a2.519,2.519,0,0,0-.271,1.382,1.453,1.453,0,0,0,1.086,1.579,41.208,41.208,0,0,1,9.5,5.252c7.875,6.4,11.676,18.874,9.426,30.681-.815,4.106-.621,5.054.97,5.054,1.047,0,1.4-1.027,2.4-6.989,1.009-5.923.892-8.884-.5-14.373-2.638-10.345-9.969-19.23-18.154-22.033C710.328-627.964,708.737-628.161,708.271-627.687Z" transform="translate(-431.746 -219.474)" fill="#fff"/>
      <path id="Path_61965" data-name="Path 61965" d="M449.792-564.053a87.785,87.785,0,0,0-24.167,15.992C415.771-538.466,411-527.8,411-515.248c0,7.936,1.164,13.109,4.616,20.73l1.784,3.949.194,27.442.194,27.443h69.437l.194-27.245c.233-29.851.039-27.522,2.6-32.813,4.383-8.845,5.392-20.217,2.793-30.522-2.754-10.661-11.327-21.717-23.236-29.93-4.965-3.435-15.4-8.845-16.99-8.8A14.65,14.65,0,0,0,449.792-564.053Zm7.564,3.751c15.09,7.186,27.581,19.229,31.964,30.838a38.19,38.19,0,0,1,2.638,13.03c.31,7.423-.892,13.03-4.461,20.454l-1.823,3.83L485.48-465.1l-.194,27.048-3.763.118-3.8.118-.077-29.259c-.078-16.11-.078-29.338,0-29.417a26.338,26.338,0,0,1,3.1.474c2.87.553,2.987.553,3.608-.237a9.235,9.235,0,0,0,.931-5.528c-.117-.434-.931-1.026-1.862-1.382-9.5-3.514-12.064-4.659-14.159-6.278a12.1,12.1,0,0,0-3.452-2.053c-5.043-1.066-8.845,5.923-5.9,10.779,1.4,2.409,2.754,2.922,7.332,2.764l4.073-.119.116,29.891.078,29.93h-15.9v-34.392l.931-.869a21.669,21.669,0,0,1,2.483-1.895c6.284-4.265,5.547-12.6-2.289-26.1a32.306,32.306,0,0,1-3.1-6.239c0-.553,0-2.606.039-4.581a40.838,40.838,0,0,0-.388-6.12c-1.164-6.436-5.353-12.715-9.969-14.847-1.862-.869-2.521-.987-5.121-.829-6.788.434-11.4,5.252-12.491,13.149-1.125,8.253,1.125,15.873,6.323,21.283l2.6,2.685-2.133,2.014a16.214,16.214,0,0,0-4.772,8.568c-.233,1.3-.5,11.135-.659,25.073l-.233,22.9h-7.1l-.194-27.048-.194-27.048-1.629-3.159a40.9,40.9,0,0,1,2.056-41.539c5.237-8.134,16.952-17.768,28.2-23.257C451.692-562.315,453.244-562.276,457.356-560.3Zm-14.935,29.693a13.944,13.944,0,0,1,3.064,2.053c1.319,1.3,3.3,4.185,3.065,4.462a18.063,18.063,0,0,1-2.871.513c-7.564,1.106-12.18,4.3-15.555,10.74-1.319,2.487-1.4,2.487-2.017-.434-1.2-5.37.5-12.359,3.8-15.558A9.627,9.627,0,0,1,442.421-530.608Zm8.108,11.649c.97,1.974,1.047,11.253.116,11.214a16.007,16.007,0,0,1-1.978-3.2,23.428,23.428,0,0,0-4.771-6.08l-3.026-2.883,1.164-.276c.659-.158,2.366-.395,3.8-.553C448.783-521.092,449.675-520.737,450.529-518.96Zm-13.81,3.79c.155.948.349,2.843.465,4.264.272,2.567.233,2.567-1.125,3.909-2.521,2.448-1.629,4.067,3.763,6.949a11.425,11.425,0,0,1,2.987,1.935c0,.434-4.151-.118-5.7-.75a16.227,16.227,0,0,1-5.935-5.923c-.931-1.935-.815-2.724.776-6.318,1.008-2.251,3.569-5.726,4.267-5.726C436.37-516.828,436.6-516.078,436.719-515.169Zm6.206.434c1.552,1.619,6.09,8.845,6.09,9.713,0,.671-2.871,2.8-4.345,3.238a6.332,6.332,0,0,1-5.819-1.619c-1.823-1.54-1.979-2.448-.31-1.974a15.362,15.362,0,0,0,2.6.474c1.358.079,1.474.039,1.358-.829a12.433,12.433,0,0,0-1.435-3c-1.668-2.606-2.328-5.133-1.785-6.633C439.861-516.907,440.986-516.709,442.925-514.735Zm24.051,6.594c2.871,2.33,1.436,7.9-2.056,7.9-2.483,0-4.5-3.435-3.491-5.923C462.476-508.773,465.075-509.681,466.976-508.141Zm-11.715,8.924c4.073,7.068,6.284,13.781,5.625,17.295-.349,1.935-2.522,4.3-5,5.528-2.521,1.264-5.935,1.816-11.056,1.816a18.247,18.247,0,0,0-4.81.434c-.776.434-.776.474.31,1.185.97.632,1.9.75,6.866.75h5.7v33.958H429.659l-.272-1.856c-.155-.987-.155-11.174-.039-22.586.194-16.979.311-21.243.815-23.257,1.59-6.436,4.461-8.805,11.443-9.477,3.841-.395,3.724-.434,6.478,3.87,2.638,4.185,2.444,4.541-3.142,4.936-4,.276-6.4.79-6.4,1.382,0,.2.388.632.853.948.621.474,1.823.632,4.384.632,3.84,0,6.051-.474,7.68-1.658,1.94-1.422,1.435-3.159-2.948-10.148-1.785-2.843-2.173-3.791-1.785-4.028.31-.158,1.668-1.184,3.065-2.251a10.9,10.9,0,0,1,2.754-1.816A49.571,49.571,0,0,1,455.261-499.217Zm21.064-3.554c.737.711.737.632.233,1.895a1.368,1.368,0,0,1-2.211.711c-.31-.2-.388-.829-.233-1.777C474.347-503.561,475.239-503.876,476.325-502.771Zm5.431,1.737a1.372,1.372,0,0,1,1.008,1.066c0,1.3-.5,1.579-2.211,1.224-1.358-.316-1.668-.513-1.668-1.263C478.885-501.507,479.777-501.823,481.756-501.033Zm-6.9,30.641c.271,22.151.039,32.418-.66,31.312-.194-.316-.31-13.267-.31-28.982.039-17.887.194-27.758.388-26.653C474.463-493.728,474.735-482.791,474.851-470.392Z" transform="translate(-249.957 -256.957)" fill="#fff"/>
      <path id="Path_61966" data-name="Path 61966" d="M503.811-193.921c-.311.869-2.6,7.621-5.043,15s-5.819,17.65-7.526,22.823l-3.142,9.358h8.767l5.78-18.558c3.181-10.187,5.858-18.558,5.974-18.558s2.871,8.371,6.168,18.558l6.013,18.558h4.577c2.948,0,4.539-.158,4.383-.395-.116-.2-3.452-9.832-7.409-21.4-3.918-11.569-7.6-22.309-8.146-23.889l-1.009-2.843-4.422-.118-4.384-.119Z" transform="translate(4.141 -581.122)" fill="#fff"/>
      <path id="Path_61967" data-name="Path 61967" d="M721-195.382l-4,.118v48.528h8.146v-21.322h17.069v21.322h8.146v-48.528l-4.073-.118-4.073-.119-.078,9.674-.117,9.674H725.34l-.194-9.674-.194-9.674Z" transform="translate(-135.965 -581.122)" fill="#fff"/>
      <path id="Path_61968" data-name="Path 61968" d="M960.6-179.429c0,8.884-.156,16.11-.311,16.11-.194,0-4.073-7.186-8.65-15.992l-8.3-15.952-4.151-.04H935v48.567h7.758l.078-15.913.117-15.873,8.34,15.873,8.34,15.873,4.19.039h4.151V-195.5H960.6Z" transform="translate(-269.399 -581.122)" fill="#fff"/>
      <path id="Path_61969" data-name="Path 61969" d="M608-170.816v24.323h9.814a100.034,100.034,0,0,0,11.482-.434c6.323-1.461,10.784-6.515,12.724-14.373.892-3.791.931-14.57,0-18.677-1.4-6.4-4.888-11.451-9.388-13.741l-2.328-1.145-11.133-.119L608-195.1Zm20.831-15.241c4.151,2.211,5.9,7.9,5.431,17.611-.388,8.489-2.366,12.517-6.594,13.623a40.876,40.876,0,0,1-6.634.434h-4.888v-32.852l5.547.158C626.465-186.966,627.434-186.848,628.831-186.058Z" transform="translate(-69.248 -581.364)" fill="#fff"/>
      <path id="Path_61970" data-name="Path 61970" d="M831.16-194.441c-.116.276-3.336,9.911-7.137,21.441-3.8,11.49-7.371,22.23-7.914,23.77l-1.009,2.882h8.806l.815-2.488c3.3-10.345,10.513-33.8,10.513-34.155,0-.829.7-.513.97.395.116.513,2.793,8.845,5.935,18.558l5.664,17.69h9.116l-1.164-3.277c-.621-1.777-4.345-12.675-8.263-24.165l-7.138-20.927-4.5-.118C832.44-194.915,831.276-194.8,831.16-194.441Z" transform="translate(-196.01 -581.509)" fill="#fff"/>
      <path id="Path_61971" data-name="Path 61971" d="M194-188.7l-4,3.2v42.131h8.146l.078-24.284c.078-13.346.039-24.284-.078-24.244C198.03-191.9,196.168-190.439,194-188.7Z" transform="translate(186.604 -583.3)" fill="#fff"/>
      <path id="Path_61972" data-name="Path 61972" d="M230.123-186c.97,3.317,4.306,14.254,7.37,24.284l5.586,18.282h9l5.547-18.282c3.065-10.029,6.4-20.927,7.409-24.165l1.823-5.923-4.267-.118a39.364,39.364,0,0,0-4.384.039c-.077.079-2.366,8.016-5.043,17.69-2.715,9.635-5.043,17.65-5.2,17.848-.194.237-3.414-10.306-9-29.812L237.3-192h-9Z" transform="translate(163.161 -583.24)" fill="#fff"/>
      <path id="Path_61973" data-name="Path 61973" d="M349-188.052v3.949h31.033V-192H349Z" transform="translate(89.282 -583.6)" fill="#fff"/>
      <path id="Path_61974" data-name="Path 61974" d="M0-166.914v24.086H29.482v-7.9H8.534V-191H0Z" transform="translate(302.899 -583.845)" fill="#fff"/>
      <path id="Path_61975" data-name="Path 61975" d="M147.8-152.9l-3.8,2.961v28.351h8.146v-17.176c0-9.437-.116-17.176-.272-17.137A32.033,32.033,0,0,0,147.8-152.9Z" transform="translate(214.759 -605.085)" fill="#fff"/>
      <path id="Path_61976" data-name="Path 61976" d="M349-140.051v3.949h29.482V-144H349Z" transform="translate(89.282 -612.556)" fill="#fff"/>
      <path id="Path_61977" data-name="Path 61977" d="M105-120.741l-4,3.2v15.715h8.146v-11.056c0-6.081-.039-11.056-.078-11.017C108.991-123.9,107.168-122.479,105-120.741Z" transform="translate(241.079 -624.449)" fill="#fff"/>
      <path id="Path_61978" data-name="Path 61978" d="M349-85.051V-81.1h31.809V-89H349Z" transform="translate(89.282 -645.569)" fill="#fff"/>
    </g>
  </g>
</svg>
